<?xml version="1.0" ?><svg id="object" viewBox="0 0 32 32" xmlns="http://www.w3.org/2000/svg"><title/><path d="M1,6V26a1,1,0,0,0,1,1H6V5H2A1,1,0,0,0,1,6Z"/><rect height="22" width="3" x="8" y="5"/><path d="M30,5H13V27H30a1,1,0,0,0,1-1V6A1,1,0,0,0,30,5ZM21.06,15.2a1.6,1.6,0,0,1-1.6-1.6V11.8A1.59,1.59,0,0,1,21,10.21V10a1,1,0,0,1,2,0v.2h.5a1,1,0,0,1,0,2h-2v1h1.4a1.6,1.6,0,0,1,1.6,1.6v1.8A1.6,1.6,0,0,1,23,18.19v.21a1,1,0,0,1-2,0v-.2h-.5a1,1,0,0,1,0-2h2v-1ZM27,23H17a1,1,0,0,1,0-2H27a1,1,0,0,1,0,2Z"/></svg>